# xmcd
#
# Track frame offsets:
# 150
# 16304
# 30417
# 47066
# 64947
# 77100
# 94301
# 106765
# 120308
# 140126
# 156652
# 169448
# 185999
# 200463
# 218338
# 232380
# 246781
# 260949
# 274682
# 289392
#
# Disc length: 4060 seconds
#
# Revision: 3
# Processed by: cddbd v1.5.2PL0 Copyright (c) Steve Scherf et al.
# Submitted via: TinyPlayer 2.8
#
DISCID=380fda14
DTITLE=Randy Travis - The Platinum Collection
DYEAR=2006
DGENRE=Country
TTITLE0=Forever and Ever Amen
TTITLE1=On the Other Hand
TTITLE2=I Told You So
TTITLE3=It's Just a Matter of Time
TTITLE4=Better Class of Losers
TTITLE5=King of the Road
TTITLE6=The Storms of Life
TTITLE7=1982
TTITLE8=Reasons I Cheat
TTITLE9=Good Intentions
TTITLE10=Honky Tonk Moon
TTITLE11=Deeper Than the Holler
TTITLE12=Is It Still Over
TTITLE13=Hard Rock Bottom of Your Heart
TTITLE14=Forever Together
TTITLE15=Look Heart, No Hands
TTITLE16=Whisper My Name
TTITLE17=Diggin' Up Bones
TTITLE18=Heroes and Friends
TTITLE19=Before You Kill Us All
EXTD=Location:  - UPC: 081227405021 - Catalogue number: 8122-74050-2 - Label: Warner Platinum,Rhino - ASIN: B000G03RHW - Release Date: 2006 07 24 - Discogs: a205019 - MUSICBRAINZ_ALBUMID:  - AMG: p1846,r842265;
EXTT0=
EXTT1=
EXTT2=
EXTT3=
EXTT4=
EXTT5=
EXTT6=
EXTT7=
EXTT8=
EXTT9=
EXTT10=
EXTT11=
EXTT12=
EXTT13=
EXTT14=
EXTT15=
EXTT16=
EXTT17=
EXTT18=
EXTT19=
PLAYORDER=
